<svg width="24" height="24" viewBox="0 0 24 24" fill="none" xmlns="http://www.w3.org/2000/svg">
<path d="M7.51844 20.4491C7.15476 19.3358 6.1096 18.5879 4.91753 18.5879H4.08257C2.65186 18.5879 1.4145 19.719 1.39147 21.1617L1.35547 23.2278H7.30824L7.33689 21.6117C7.34134 20.908 7.51844 20.4491 7.51844 20.4491V20.4491Z" fill="white"/>
<path d="M4.49795 17.7898C5.50789 17.7898 6.32989 16.9717 6.32989 15.9662C6.32989 14.9605 5.50789 14.1426 4.49795 14.1426C3.48802 14.1426 2.66602 14.9607 2.66602 15.9662C2.66602 16.9719 3.48802 17.7898 4.49795 17.7898V17.7898Z" fill="white"/>
<path d="M19.4921 17.7898C20.502 17.7898 21.324 16.9717 21.324 15.9662C21.324 14.9605 20.502 14.1426 19.4921 14.1426C18.4822 14.1426 17.6602 14.9607 17.6602 15.9662C17.66 16.9719 18.482 17.7898 19.4921 17.7898Z" fill="white"/>
<path d="M19.9111 18.5879H19.0763C18.3125 18.5879 17.5773 18.9105 17.0547 19.4641C16.7945 19.7438 16.6066 20.0755 16.4961 20.45C16.4961 20.45 16.7013 20.8464 16.708 21.747V23.228H22.6455V21.2674C22.6455 19.7898 21.419 18.5879 19.9111 18.5879Z" fill="white"/>
<path d="M12.4911 18.6582H11.503C9.84468 18.6582 8.36675 19.9364 8.33868 21.6255L8.29707 23.9713L8.29688 24.0003H15.7067V21.7474C15.7067 20.044 14.2642 18.6582 12.4911 18.6582V18.6582Z" fill="#F0FFF8"/>
<path d="M11.9945 13.1484C10.8582 13.1484 9.93359 14.0688 9.93359 15.2001C9.93359 16.3313 10.8582 17.2517 11.9945 17.2517C13.1308 17.2517 14.0554 16.3313 14.0554 15.2001C14.0554 14.0688 13.131 13.1484 11.9945 13.1484V13.1484Z" fill="#F0FFF8"/>
<path d="M11.9046 0.13141C11.5373 0.47999 11.1391 1.27722 10.8242 2.29586C11.6576 2.48322 12.528 2.46135 13.3522 2.23818C13.0959 1.25902 12.7589 0.491216 12.4262 0.140507C12.2493 -0.046074 12.0902 -0.0445256 11.9046 0.13141V0.13141Z" fill="white"/>
<path d="M13.5098 0.177734C13.7683 0.64767 13.9969 1.25348 14.1814 1.93999C14.6949 1.70773 15.1367 1.41702 15.5043 1.12244C14.9122 0.691605 14.2383 0.366638 13.5098 0.177734V0.177734Z" fill="white"/>
<path d="M10.2441 6.35742C10.2625 7.22142 10.3725 8.07574 10.5372 8.84703C11.4823 8.62078 12.4727 8.60994 13.4228 8.81413C13.597 8.0711 13.7267 7.23536 13.7714 6.35762H10.2441V6.35742Z" fill="white"/>
<path d="M14.6503 6.35762C14.6082 7.15465 14.4758 8.11775 14.2598 9.05123C15.087 9.34755 15.7429 9.76581 16.2032 10.1235C17.1872 9.14491 17.829 7.82433 17.9366 6.35742H14.6503V6.35762Z" fill="white"/>
<path d="M9.37932 5.48217C9.42307 4.61101 9.55661 3.71682 9.75558 2.8834C8.96707 2.57837 8.32294 2.14637 7.8261 1.72656C6.8481 2.70398 6.21074 4.02069 6.10352 5.48217H9.37932Z" fill="white"/>
<path d="M9.36577 6.35742H6.10352C6.21248 7.84368 6.87074 9.17916 7.877 10.1616C8.35448 9.78187 8.96126 9.39478 9.69519 9.10949C9.50358 8.23562 9.38494 7.28491 9.36577 6.35742Z" fill="white"/>
<path d="M9.91426 9.9668C9.38626 10.1836 8.93587 10.4596 8.56445 10.7389C9.17432 11.1772 9.86974 11.5028 10.6213 11.6851C10.3519 11.2278 10.1113 10.6374 9.91426 9.9668Z" fill="white"/>
<path d="M14.0376 9.89648C13.8315 10.588 13.5766 11.2246 13.2754 11.7174C14.1011 11.5389 14.8631 11.1886 15.5221 10.7055C15.1205 10.4078 14.6248 10.1146 14.0376 9.89648Z" fill="white"/>
<path d="M10.75 9.69621C11.0177 10.6148 11.3577 11.3348 11.6897 11.6727C11.8519 11.8378 11.9322 11.8386 11.957 11.8386H11.9591C12.2705 11.8388 12.7892 10.9742 13.1951 9.65691C12.3888 9.49337 11.5503 9.50537 10.75 9.69621V9.69621Z" fill="white"/>
<path d="M16.184 1.69922C15.7047 2.10006 15.1034 2.50632 14.3828 2.80941C14.5506 3.66006 14.6518 4.58057 14.6648 5.48348H17.9366C17.8284 4.00748 17.1786 2.67973 16.184 1.69922V1.69922Z" fill="white"/>
<path d="M11.9649 3.29988C11.5047 3.29988 11.0452 3.24491 10.5969 3.14156C10.4249 3.87394 10.3027 4.67562 10.2598 5.48388H13.7876C13.7756 4.65491 13.6854 3.83775 13.5449 3.09375C13.0594 3.22188 12.5334 3.29988 11.9649 3.29988Z" fill="white"/>
<path d="M9.98879 2.03208C10.2228 1.2757 10.5089 0.610472 10.822 0.109375C9.9675 0.28531 9.17995 0.646085 8.50195 1.14699C8.90047 1.46944 9.39731 1.7915 9.98879 2.03208Z" fill="white"/>
</svg>
