<svg width="20" height="24" viewBox="0 0 20 24" fill="none" xmlns="http://www.w3.org/2000/svg">
<path d="M16.5308 0.381467C16.3496 0.170642 15.9767 0 15.6989 0H6.74634H3.2932C1.83519 0 0.648438 1.18576 0.648438 2.64532V21.3557C0.648438 22.8148 1.83519 24.0001 3.29326 24.0001H16.706C18.1631 24.0001 19.3504 22.8148 19.3504 21.3557V16.6363V4.15466C19.3504 3.87634 19.2034 3.48076 19.0217 3.26987L16.5308 0.381467ZM15.716 19.3552H4.28269C3.93292 19.3552 3.65002 19.0733 3.65002 18.7235C3.65002 18.3748 3.93286 18.0894 4.28269 18.0894H15.716C16.0643 18.0894 16.3476 18.3743 16.3476 18.7235C16.3482 19.0733 16.0643 19.3552 15.716 19.3552ZM15.716 14.0076H4.28269C3.93292 14.0076 3.65002 13.7258 3.65002 13.376C3.65002 13.0272 3.93286 12.7419 4.28269 12.7419H15.716C16.0643 12.7419 16.3476 13.0267 16.3476 13.376C16.3482 13.7258 16.0643 14.0076 15.716 14.0076ZM15.716 8.66013H4.28269C3.93292 8.66013 3.65002 8.37879 3.65002 8.02852C3.65002 7.67975 3.93286 7.39438 4.28269 7.39438H15.716C16.0643 7.39438 16.3476 7.67925 16.3476 8.02852C16.3482 8.37829 16.0643 8.66013 15.716 8.66013ZM17.7664 4.4521H15.5237C15.2041 4.4521 14.9449 4.19292 14.9449 3.8738V1.36643C14.9449 1.04633 15.1211 0.977909 15.3386 1.21195L17.9511 4.02785C18.1686 4.26289 18.086 4.4521 17.7664 4.4521Z" fill="white"/>
</svg>
