<svg width="69" height="97" viewBox="0 0 69 97" fill="none" xmlns="http://www.w3.org/2000/svg">
<g clip-path="url(#clip0_1568_19374)">
<path d="M0 89.7805C0 93.341 2.96012 96.308 6.51227 96.308H62.7546C66.3068 96.308 69.2669 93.341 69.2669 89.7805V7.297C69.2669 3.73656 66.3068 0.769531 62.7546 0.769531H23.8783L0 24.7036V89.7805Z" fill="#3DCF8E" fill-opacity="0.1"/>
<path d="M21.7076 22.5273L0 43.89V24.7032L2.17076 22.5273H21.7076Z" fill="#3DCF8E"/>
<path d="M23.8783 0.769531V18.1761C23.8783 21.7366 20.9182 24.7036 17.3661 24.7036H0L23.8783 0.769531Z" fill="#3DCF8E" fill-opacity="0.4"/>
</g>
<path fill-rule="evenodd" clip-rule="evenodd" d="M35.09 44.6889H16.3066V41.7734H35.09V44.6889Z" fill="#3DCF8E" fill-opacity="0.4"/>
<path fill-rule="evenodd" clip-rule="evenodd" d="M60.0072 58.6225H15.9238V55.707H60.0072V58.6225Z" fill="#3DCF8E" fill-opacity="0.4"/>
<path fill-rule="evenodd" clip-rule="evenodd" d="M60.0072 66.5835H15.9238V63.668H60.0072V66.5835Z" fill="#3DCF8E" fill-opacity="0.4"/>
<path fill-rule="evenodd" clip-rule="evenodd" d="M60.0072 74.5444H15.9238V71.6289H60.0072V74.5444Z" fill="#3DCF8E" fill-opacity="0.4"/>
<path fill-rule="evenodd" clip-rule="evenodd" d="M52.3405 82.5053H15.9238V79.5898H52.3405V82.5053Z" fill="#3DCF8E" fill-opacity="0.4"/>
<defs>
<clipPath id="clip0_1568_19374">
<rect width="69" height="95.5385" fill="white" transform="translate(0 0.769531)"/>
</clipPath>
</defs>
</svg>
