<svg width="22" height="22" viewBox="0 0 22 22" fill="none" xmlns="http://www.w3.org/2000/svg">
<path d="M11.0019 6.625C10.1367 6.625 9.2908 6.88159 8.57133 7.36232C7.85187 7.84305 7.29111 8.52633 6.95998 9.32576C6.62885 10.1252 6.54221 11.0048 6.71102 11.8535C6.87983 12.7022 7.29651 13.4817 7.90836 14.0936C8.52021 14.7054 9.29976 15.1221 10.1484 15.2909C10.9971 15.4597 11.8768 15.3731 12.6762 15.042C13.4756 14.7108 14.1589 14.1501 14.6396 13.4306C15.1203 12.7111 15.3769 11.8653 15.3769 11C15.3756 9.84009 14.9142 8.72809 14.094 7.90791C13.2738 7.08774 12.1618 6.62637 11.0019 6.625ZM11.0019 13.625C10.4828 13.625 9.97526 13.471 9.54358 13.1826C9.1119 12.8942 8.77545 12.4842 8.57677 12.0045C8.37809 11.5249 8.3261 10.9971 8.42739 10.4879C8.52868 9.97868 8.77868 9.51095 9.14579 9.14384C9.51291 8.77673 9.98064 8.52672 10.4898 8.42544C10.999 8.32415 11.5268 8.37613 12.0065 8.57481C12.4861 8.77349 12.8961 9.10994 13.1846 9.54162C13.473 9.9733 13.6269 10.4808 13.6269 11C13.6262 11.6959 13.3494 12.3632 12.8573 12.8553C12.3651 13.3474 11.6979 13.6242 11.0019 13.625Z" fill="#59595C"/>
<path d="M2.49029 5.56092C2.06003 5.39927 1.58376 5.41134 1.16224 5.59456C0.740717 5.77778 0.406997 6.11778 0.231676 6.54265C0.0563538 6.96752 0.0531814 7.44393 0.222829 7.87109C0.392477 8.29826 0.72164 8.64268 1.14069 8.8315C1.56699 9.01181 1.93072 9.31373 2.18644 9.69955C2.44216 10.0854 2.57854 10.538 2.57854 11.0008C2.57854 11.4637 2.44216 11.9163 2.18644 12.3021C1.93072 12.688 1.56699 12.9899 1.14069 13.1702C0.72154 13.359 0.392298 13.7035 0.222626 14.1307C0.0529549 14.558 0.0561665 15.0345 0.231581 15.4594C0.406996 15.8844 0.740852 16.2244 1.1625 16.4075C1.58416 16.5907 2.06053 16.6026 2.49081 16.4408C2.92019 16.2659 3.39161 16.2216 3.84604 16.3135C4.30047 16.4053 4.71769 16.6292 5.04543 16.9571C5.37318 17.285 5.59688 17.7024 5.68852 18.1568C5.78015 18.6113 5.73565 19.0827 5.56057 19.512C5.39369 19.9434 5.40405 20.4233 5.58939 20.8471C5.77474 21.2709 6.12005 21.6043 6.55011 21.7747C6.76548 21.8638 6.99629 21.9097 7.22937 21.9097C7.56989 21.9121 7.90353 21.8139 8.18848 21.6274C8.47342 21.441 8.69699 21.1746 8.83115 20.8616C9.01146 20.4353 9.31338 20.0716 9.6992 19.8159C10.085 19.5601 10.5376 19.4238 11.0005 19.4238C11.4634 19.4238 11.916 19.5601 12.3018 19.8159C12.6876 20.0716 12.9895 20.4353 13.1698 20.8616C13.3587 21.2808 13.7031 21.61 14.1304 21.7797C14.5576 21.9493 15.0342 21.9461 15.4591 21.7707C15.884 21.5953 16.224 21.2614 16.4072 20.8398C16.5903 20.4181 16.6022 19.9418 16.4404 19.5115C16.2655 19.0821 16.2213 18.6107 16.3131 18.1563C16.405 17.7018 16.6289 17.2846 16.9568 16.9569C17.2847 16.6291 17.702 16.4054 18.1565 16.3138C18.611 16.2221 19.0824 16.2666 19.5117 16.4417C19.9404 16.6082 20.4174 16.5992 20.8395 16.4169C21.2617 16.2345 21.5952 15.8934 21.7679 15.4671L20.9656 15.1185L20.1693 14.8203C19.4215 14.5148 18.6 14.4372 17.8082 14.5973C17.0164 14.7574 16.2895 15.148 15.7191 15.7201C15.1492 16.2947 14.7576 17.0218 14.5915 17.8139C14.4255 18.6061 14.4922 19.4293 14.7834 20.1844C14.4713 19.4391 13.9456 18.803 13.2725 18.3561C12.5993 17.9093 11.809 17.6717 11.0011 17.6734C10.1914 17.6759 9.39974 17.913 8.722 18.3561C8.04426 18.7991 7.50945 19.4291 7.1823 20.1697C7.48762 19.4219 7.5651 18.6004 7.40502 17.8087C7.24493 17.0169 6.85442 16.2901 6.28254 15.7196C5.70792 15.1497 4.98075 14.7581 4.18867 14.5921C3.39658 14.4261 2.57339 14.4927 1.81829 14.7839C2.56348 14.4716 3.19955 13.9458 3.64631 13.2726C4.09308 12.5994 4.33054 11.809 4.32875 11.0011C4.32624 10.1914 4.08911 9.39974 3.64607 8.722C3.20302 8.04426 2.57304 7.50945 1.83237 7.1823C2.58021 7.4878 3.40169 7.56539 4.1935 7.40529C4.98532 7.2452 5.71212 6.85457 6.28254 6.28254C6.85251 5.70797 7.24411 4.9808 7.41014 4.18869C7.57617 3.39659 7.50953 2.57337 7.21826 1.81829C7.53048 2.56347 8.05633 3.19955 8.72952 3.64631C9.40272 4.09308 10.1931 4.33054 11.0011 4.32875C11.8108 4.32624 12.6024 4.08911 13.2801 3.64607C13.9579 3.20302 14.4927 2.57304 14.8198 1.83237C14.5145 2.58025 14.437 3.40167 14.5971 4.19344C14.7572 4.98522 15.1477 5.71202 15.7196 6.28254C16.2943 6.85221 17.0215 7.24362 17.8135 7.40963C18.6056 7.57564 19.4287 7.50919 20.1838 7.21826C19.4422 7.52982 18.8087 8.05276 18.3623 8.72189C17.9159 9.39102 17.6763 10.1768 17.6734 10.9811C17.6705 11.7855 17.9044 12.573 18.346 13.2453C18.7875 13.9176 19.4172 14.4452 20.1565 14.7621C20.1589 14.7693 20.1589 14.7771 20.1565 14.7843L20.9653 15.118L21.7693 15.4628L21.7741 15.4517C21.9527 15.0279 21.9571 14.5508 21.7862 14.1239C21.6154 13.697 21.2831 13.3546 20.8614 13.1711C20.4351 12.9907 20.0714 12.6888 19.8157 12.303C19.56 11.9172 19.4236 11.4646 19.4236 11.0017C19.4236 10.5388 19.56 10.0862 19.8157 9.70042C20.0714 9.3146 20.4351 9.01268 20.8614 8.83237C21.2806 8.64355 21.6098 8.29907 21.7795 7.87182C21.9492 7.44456 21.946 6.96806 21.7705 6.54313C21.5951 6.1182 21.2613 5.77818 20.8396 5.59503C20.418 5.41188 19.9416 5.39996 19.5113 5.5618C19.0819 5.73666 18.6105 5.78094 18.1561 5.68909C17.7017 5.59723 17.2844 5.37333 16.9567 5.04542C16.6289 4.71751 16.4052 4.30019 16.3136 3.84572C16.222 3.39124 16.2665 2.91984 16.4415 2.49055C16.6033 2.06028 16.5914 1.58396 16.4082 1.16236C16.225 0.740755 15.885 0.406954 15.4601 0.231579C15.0352 0.056204 14.5587 0.0530144 14.1315 0.222685C13.7043 0.392355 13.3599 0.721575 13.1711 1.14069C12.9907 1.56699 12.6888 1.93072 12.303 2.18644C11.9172 2.44216 11.4646 2.57854 11.0017 2.57854C10.5388 2.57854 10.0862 2.44216 9.70042 2.18644C9.31461 1.93072 9.01268 1.56699 8.83237 1.14069C8.64356 0.72154 8.29907 0.392297 7.87182 0.222626C7.44456 0.0529549 6.96806 0.0561665 6.54313 0.231581C6.1182 0.406996 5.77818 0.740852 5.59503 1.1625C5.41188 1.58416 5.39996 2.06053 5.5618 2.49081C5.73666 2.92019 5.78094 3.39161 5.68909 3.84604C5.59723 4.30047 5.37333 4.71769 5.04542 5.04543C4.71751 5.37318 4.30019 5.59688 3.84572 5.68852C3.39125 5.78015 2.91984 5.73565 2.49055 5.56057L2.49029 5.56092Z" fill="#59595C"/>
</svg>
