<svg width="25" height="64" viewBox="0 0 25 64" fill="none" xmlns="http://www.w3.org/2000/svg">
<g filter="url(#filter0_d_1568_17945)">
<path d="M20.6048 32.0508C20.6048 32.0508 20.6713 48.9592 20.6713 50.1906C20.6713 51.4221 19.8561 52.6536 18.2286 53.5931C14.9735 55.4722 9.6978 55.4722 6.44274 53.5931C4.81521 52.6536 4 51.4221 4 50.1906C4 48.9592 4.0636 32.0508 4.0636 32.0508H20.6048Z" fill="#8FD4FF"/>
<path d="M20.6057 32.4662C20.6057 34.6597 19.7343 36.7634 18.1833 38.3144C16.6322 39.8655 14.5286 40.7368 12.3351 40.7368C10.1416 40.7368 8.0379 39.8655 6.48686 38.3144C4.93582 36.7634 4.06445 34.6597 4.06445 32.4662C4.06445 25.8462 9.47606 20.2814 9.47606 11.6523H15.1941C15.1941 19.1482 20.6057 25.8462 20.6057 32.4662Z" fill="#8FD4FF"/>
<path d="M7.82812 48.4735C11.0658 49.7021 15.457 49.4911 18.3015 47.8491C19.6198 47.0888 20.4061 46.1377 20.6576 45.1491V35.6094C20.4061 36.598 19.6198 37.552 18.3015 38.3123C15.457 39.9543 11.0745 40.1624 7.82812 38.9367V48.4735Z" fill="#37DD7A"/>
<path d="M15.1936 2.90625V13.3334C15.1936 13.7555 14.9045 14.1775 14.3581 14.4897C13.7311 14.8082 13.0378 14.9741 12.3346 14.9741C11.6313 14.9741 10.938 14.8082 10.311 14.4897C9.75306 14.166 9.47266 13.7439 9.47266 13.3334V2.90625H15.1936Z" fill="#BDE6FF"/>
<path d="M14.5508 1.58185C15.7765 2.28721 15.7765 3.43487 14.5508 4.14023C13.8639 4.48933 13.1042 4.67129 12.3336 4.67129C11.563 4.67129 10.8033 4.48933 10.1163 4.14023C8.89352 3.43487 8.89352 2.28721 10.1163 1.58185C10.8033 1.23274 11.563 1.05078 12.3336 1.05078C13.1042 1.05078 13.8639 1.23274 14.5508 1.58185Z" fill="#17A984"/>
<path d="M15.7566 1.97266V4.89817C15.7566 5.40117 15.4213 5.90706 14.7535 6.29443C13.418 7.06339 11.2527 7.06339 9.91718 6.29443C9.2494 5.90706 8.91406 5.40117 8.91406 4.89817V1.97266H15.7566Z" fill="#285056"/>
<path d="M12.3339 3.94885C14.2226 3.94885 15.7537 3.06488 15.7537 1.97443C15.7537 0.883986 14.2226 0 12.3339 0C10.4452 0 8.91406 0.883986 8.91406 1.97443C8.91406 3.06488 10.4452 3.94885 12.3339 3.94885Z" fill="#285056"/>
<path d="M14.0318 1.13036C14.9685 1.59578 14.9685 2.35028 14.0318 2.8157C13.4957 3.04602 12.9184 3.1648 12.3349 3.1648C11.7515 3.1648 11.1741 3.04602 10.638 2.8157C9.70139 2.35028 9.70139 1.59578 10.638 1.13036C11.1741 0.900031 11.7515 0.78125 12.3349 0.78125C12.9184 0.78125 13.4957 0.900031 14.0318 1.13036Z" fill="#37DD7A"/>
<path d="M18.3002 41.2459C16.3807 42.3444 13.779 42.804 11.2871 42.6103V43.4631C13.7761 43.6568 16.3865 43.203 18.3002 42.0987C19.6184 41.3384 20.4047 40.7544 20.6562 39.7658V38.543C20.4047 39.5316 19.6184 40.4856 18.3002 41.2459Z" fill="#17A984"/>
<path d="M18.3007 44.2732C17.5673 44.686 16.7844 45.0037 15.9707 45.2185V46.0713C16.7844 45.8565 17.5673 45.5388 18.3007 45.126C19.6189 44.3628 20.3965 43.643 20.6567 42.7902V41.5703C20.4052 42.559 19.6189 43.4985 18.3007 44.2732Z" fill="#17A984"/>
</g>
<defs>
<filter id="filter0_d_1568_17945" x="0" y="0" width="24.6719" height="63.0039" filterUnits="userSpaceOnUse" color-interpolation-filters="sRGB">
<feFlood flood-opacity="0" result="BackgroundImageFix"/>
<feColorMatrix in="SourceAlpha" type="matrix" values="0 0 0 0 0 0 0 0 0 0 0 0 0 0 0 0 0 0 127 0" result="hardAlpha"/>
<feOffset dy="4"/>
<feGaussianBlur stdDeviation="2"/>
<feComposite in2="hardAlpha" operator="out"/>
<feColorMatrix type="matrix" values="0 0 0 0 0 0 0 0 0 0 0 0 0 0 0 0 0 0 0.08 0"/>
<feBlend mode="normal" in2="BackgroundImageFix" result="effect1_dropShadow_1568_17945"/>
<feBlend mode="normal" in="SourceGraphic" in2="effect1_dropShadow_1568_17945" result="shape"/>
</filter>
</defs>
</svg>
