<svg width="24" height="24" viewBox="0 0 24 24" fill="currentColor" xmlns="http://www.w3.org/2000/svg">
<path d="M22.125 8.67588V19.8764C22.1244 20.4729 21.8872 21.0449 21.4653 21.4667C21.0435 21.8885 20.4716 22.1258 19.875 22.1264H16.125C15.7272 22.1264 15.3456 21.9683 15.0643 21.687C14.783 21.4057 14.625 21.0242 14.625 20.6264V16.5014C14.625 16.3025 14.546 16.1117 14.4053 15.971C14.2647 15.8304 14.0739 15.7514 13.875 15.7514H10.125C9.92609 15.7514 9.73532 15.8304 9.59467 15.971C9.45402 16.1117 9.375 16.3025 9.375 16.5014V20.6264C9.375 21.0242 9.21696 21.4057 8.93566 21.687C8.65436 21.9683 8.27282 22.1264 7.875 22.1264H4.125C3.52845 22.1258 2.9565 21.8885 2.53467 21.4667C2.11284 21.0449 1.8756 20.4729 1.875 19.8764V8.67588C1.87556 8.41686 1.94287 8.16235 2.07043 7.93692C2.19799 7.71149 2.3815 7.52274 2.60325 7.38888L11.2282 2.21388C11.4614 2.07393 11.7282 2 12.0002 2C12.2721 2 12.539 2.07393 12.7721 2.21388L21.3971 7.38888C21.6188 7.52278 21.8022 7.71156 21.9297 7.93698C22.0572 8.16241 22.1245 8.41689 22.125 8.67588Z" fill="white"/>
</svg>
