<svg width="24" height="24" viewBox="0 0 24 24" fill="none" xmlns="http://www.w3.org/2000/svg">
<path d="M23.814 11.0728C23.5832 11.4424 23.1868 11.6458 22.7806 11.6458C22.5614 11.6458 22.3367 11.5861 22.1358 11.4607L12 5.13076L1.86369 11.4613C1.29251 11.8181 0.541078 11.6439 0.185459 11.0728C-0.171377 10.5022 0.00216949 9.75076 0.573352 9.39453L11.3546 2.66153C11.7485 2.41491 12.2503 2.41491 12.6449 2.66153L23.4273 9.39514C23.9973 9.75198 24.1708 10.5022 23.814 11.0728ZM19.8925 11.7292L12.6461 7.20297C12.2515 6.95635 11.7498 6.95635 11.3558 7.20297L4.10823 11.7292C3.752 11.9515 3.53643 12.3418 3.53643 12.762V20.303C3.53643 20.9753 4.08204 21.5209 4.75431 21.5209H8.75319C9.42546 21.5209 9.97106 20.9753 9.97106 20.303V16.8698C9.97106 15.7506 10.882 14.8409 12.0013 14.8409C13.1199 14.8409 14.0308 15.7518 14.0308 16.8698V20.3024C14.0308 20.9747 14.5764 21.5203 15.2487 21.5203H19.2476C19.9199 21.5203 20.4655 20.9747 20.4655 20.3024V12.762C20.4649 12.3412 20.2487 11.9508 19.8925 11.7292Z" fill="white"/>
</svg>
