<svg width="37" height="63" viewBox="0 0 37 63" fill="none" xmlns="http://www.w3.org/2000/svg">
<g filter="url(#filter0_d_1568_17985)">
<path d="M31.1764 45.0117V46.6922C31.1764 48.5653 29.9376 50.4384 27.4634 51.8665C22.5116 54.726 14.4878 54.726 9.5294 51.8665C7.05518 50.4384 5.81641 48.5653 5.81641 46.6922V45.0117H31.1764Z" fill="#8FD4FF"/>
<path d="M18.4995 52.5664C25.4988 52.5664 31.1729 49.2907 31.1729 45.25C31.1729 41.2093 25.4988 37.9336 18.4995 37.9336C11.5002 37.9336 5.82617 41.2093 5.82617 45.25C5.82617 49.2907 11.5002 52.5664 18.4995 52.5664Z" fill="#285056"/>
<path d="M32.9999 12.6875H4V40.9202H32.9999V12.6875Z" fill="#37DD7A"/>
<path d="M32.3414 10.181L4.4043 10.709L5.82574 8.01562H31.1724L32.3414 10.181Z" fill="#E60026"/>
<path d="M18.4999 21.0575C26.508 21.0575 32.9999 17.309 32.9999 12.685C32.9999 8.061 26.508 4.3125 18.4999 4.3125C10.4918 4.3125 4 8.061 4 12.685C4 17.309 10.4918 21.0575 18.4999 21.0575Z" fill="#285056"/>
<path d="M4.53711 43.1875L32.3912 43.3203L30.993 46.4787H6.00503L4.53711 43.1875Z" fill="#285056"/>
<path d="M31.1764 7.07812V8.76193C31.1764 10.635 29.9376 12.5081 27.4634 13.9362C22.5116 16.7924 14.4878 16.7924 9.5294 13.9362C7.05518 12.5081 5.81641 10.635 5.81641 8.76193V7.07812H31.1764Z" fill="#8FD4FF"/>
<path d="M18.4995 14.6328C25.4988 14.6328 31.1729 11.3571 31.1729 7.31641C31.1729 3.27567 25.4988 0 18.4995 0C11.5002 0 5.82617 3.27567 5.82617 7.31641C5.82617 11.3571 11.5002 14.6328 18.4995 14.6328Z" fill="#BDE6FF"/>
<path d="M18.4996 13.6566C24.7579 13.6566 29.8312 10.818 29.8312 7.31656C29.8312 3.81508 24.7579 0.976562 18.4996 0.976562C12.2413 0.976562 7.16797 3.81508 7.16797 7.31656C7.16797 10.818 12.2413 13.6566 18.4996 13.6566Z" fill="#8FD4FF"/>
<path d="M10.4886 4.17193C14.9123 1.69439 22.0859 1.69439 26.5129 4.17193C28.4325 5.24797 29.5019 6.61295 29.7709 8.01778C30.103 6.18785 29.0137 4.29482 26.5129 2.89332C22.0859 0.41577 14.9123 0.41577 10.4886 2.89332C7.98444 4.29482 6.89843 6.18785 7.22722 8.01778C7.47963 6.61295 8.56563 5.24797 10.4886 4.17193Z" fill="#43BCFF"/>
<path d="M26.0659 7.54999C27.5737 8.42012 27.2947 9.99432 25.4416 11.0637C23.5884 12.1331 20.8651 12.2925 19.3573 11.4224C17.8495 10.5523 14.0004 7.14814 16.3318 5.80309C18.6632 4.45804 24.5582 6.66326 26.0659 7.54999Z" fill="#43BCFF"/>
<path d="M25.262 7.9939C26.4111 8.65812 26.1985 9.85373 24.7904 10.6674C23.3822 11.4811 21.3066 11.6039 20.1608 10.9397C19.015 10.2755 19.2242 9.08322 20.6324 8.28284C22.0405 7.48245 24.1162 7.333 25.262 7.9939Z" fill="#143684"/>
<path d="M22.1343 9.13154C21.6372 9.38362 21.0876 9.51499 20.5302 9.51499C19.9728 9.51499 19.4233 9.38362 18.9261 9.13154L17.5811 8.3544C16.6943 7.84295 16.6943 7.02595 17.5811 6.50454C18.0782 6.25246 18.6278 6.12109 19.1852 6.12109C19.7426 6.12109 20.2921 6.25246 20.7892 6.50454L22.1177 7.28169C23.021 7.79314 23.021 8.62009 22.1343 9.13154Z" fill="white"/>
<path d="M19.7683 6.74907C20.1502 6.96826 20.0638 7.37675 19.5756 7.65905C19.3393 7.7986 19.0736 7.88116 18.7998 7.90018C18.526 7.91921 18.2515 7.87417 17.9981 7.76865C17.6162 7.54945 17.7025 7.14096 18.1907 6.85867C18.4271 6.71912 18.6927 6.63655 18.9665 6.61753C19.2404 6.59851 19.5149 6.64354 19.7683 6.74907Z" fill="#43BCFF"/>
<path d="M18.4999 49.2919C26.508 49.2919 32.9999 45.5434 32.9999 40.9194C32.9999 36.2954 26.508 32.5469 18.4999 32.5469C10.4918 32.5469 4 36.2954 4 40.9194C4 45.5434 10.4918 49.2919 18.4999 49.2919Z" fill="#37DD7A"/>
<path d="M28.7555 27.501C23.0931 30.7723 13.9102 30.7723 8.24771 27.501C5.42809 25.8737 4.01328 23.7448 4 21.6094V32.9344C4 35.0864 5.40484 37.2518 8.24771 38.8825C13.8936 42.1504 23.0931 42.1504 28.7555 38.8825C31.5984 37.2385 33.0132 35.0864 32.9999 32.9344V21.6094C32.9899 23.7415 31.5918 25.8737 28.7555 27.501Z" fill="#285056"/>
</g>
<defs>
<filter id="filter0_d_1568_17985" x="0" y="0" width="37" height="62.0117" filterUnits="userSpaceOnUse" color-interpolation-filters="sRGB">
<feFlood flood-opacity="0" result="BackgroundImageFix"/>
<feColorMatrix in="SourceAlpha" type="matrix" values="0 0 0 0 0 0 0 0 0 0 0 0 0 0 0 0 0 0 127 0" result="hardAlpha"/>
<feOffset dy="4"/>
<feGaussianBlur stdDeviation="2"/>
<feComposite in2="hardAlpha" operator="out"/>
<feColorMatrix type="matrix" values="0 0 0 0 0 0 0 0 0 0 0 0 0 0 0 0 0 0 0.08 0"/>
<feBlend mode="normal" in2="BackgroundImageFix" result="effect1_dropShadow_1568_17985"/>
<feBlend mode="normal" in="SourceGraphic" in2="effect1_dropShadow_1568_17985" result="shape"/>
</filter>
</defs>
</svg>
