<svg width="126" height="126" viewBox="0 0 126 126" fill="none" xmlns="http://www.w3.org/2000/svg">
<path d="M126 63C126 75.4354 122.308 87.5286 115.326 97.9732C114.377 99.393 112.818 100.16 111.229 100.16C110.289 100.16 109.339 99.892 108.498 99.3296C106.238 97.8194 105.632 94.7624 107.142 92.5024C113.04 83.6824 116.156 73.4811 116.156 63C116.156 58.4963 115.593 54.0233 114.482 49.7071C113.804 47.075 115.389 44.3911 118.021 43.7134C120.655 43.0366 123.337 44.6208 124.015 47.2529C125.332 52.3709 126 57.6686 126 63ZM90.497 108.501C82.2298 113.509 72.7216 116.156 62.9999 116.156C33.6898 116.156 9.84374 92.3102 9.84374 63C9.84374 33.6898 33.6898 9.84375 62.9999 9.84375C73.8521 9.84375 84.287 13.091 93.1781 19.2347C95.4141 20.7795 98.4797 20.2191 100.025 17.9831C101.57 15.7471 101.011 12.6815 98.7739 11.1357C88.2303 3.85098 75.8602 0 62.9999 0C46.1723 0 30.3512 6.55321 18.4522 18.4522C6.5532 30.3512 0 46.1724 0 63C0 79.8276 6.5532 95.6488 18.4522 107.548C30.3512 119.447 46.1723 126 62.9999 126C74.5202 126 85.7924 122.86 95.5977 116.92C97.9231 115.512 98.6662 112.486 97.2579 110.161C95.8486 107.835 92.8224 107.093 90.497 108.501ZM63.4748 77.2715C62.6952 77.3023 61.9675 77.0254 61.4023 76.4871L35.6249 52.0459C33.6523 50.1752 30.5367 50.2579 28.667 52.2305C26.7963 54.2031 26.879 57.3187 28.8516 59.1884L54.6241 83.6257C57.0043 85.8886 60.0833 87.1172 63.346 87.1172C63.521 87.1172 63.6959 87.1133 63.8709 87.1066C67.3268 86.9672 70.501 85.4714 72.8081 82.8942C72.8668 82.8298 72.9225 82.7634 72.9773 82.6952L124.914 18.0956C126.617 15.9769 126.281 12.8786 124.162 11.1761C122.044 9.47269 118.945 9.80914 117.241 11.9279L65.407 76.4015C64.8976 76.9331 64.215 77.2417 63.4748 77.2715Z" fill="url(#paint0_linear_1256_7611)"/>
<defs>
<linearGradient id="paint0_linear_1256_7611" x1="123.47" y1="-4.50598e-05" x2="-11.5186" y2="13.8663" gradientUnits="userSpaceOnUse">
<stop stop-color="#3DCF8E"/>
<stop offset="1" stop-color="#15E98B" stop-opacity="0.79"/>
</linearGradient>
</defs>
</svg>
