<svg width="24" height="24" viewBox="0 0 24 24" fill="none" xmlns="http://www.w3.org/2000/svg">
<path d="M22.9552 7.64648L19.8554 9.11425C21.0965 11.796 20.715 15.0421 18.7004 17.3733L17.0117 15.6846V21.5606H22.8877L21.1388 19.8116C24.2023 16.4275 24.8045 11.6026 22.9552 7.64648Z" fill="white"/>
<path d="M16.3549 22.9539L14.8858 19.8554C12.2052 21.0976 8.95772 20.715 6.62674 18.7005L8.31547 17.0117H2.43945V22.8877L4.18843 21.1387C7.57274 24.202 12.3978 24.8042 16.3549 22.9539Z" fill="#F0FFF8"/>
<path d="M5.29949 6.62673L6.98822 8.31546V2.43945H1.11197L2.86071 4.18819C-0.201215 7.57387 -0.803481 12.3988 1.04578 16.355L4.1445 14.8859C2.90231 12.2052 3.28495 8.95776 5.29949 6.62673Z" fill="white"/>
<path d="M21.56 6.98792V1.11192L19.8113 2.86066C16.4256 -0.201212 11.6006 -0.803477 7.64453 1.04578L9.11344 4.14431C11.7952 2.90321 15.0415 3.2847 17.3725 5.29924L15.6838 6.98797H21.56V6.98792Z" fill="#F0FFF8"/>
</svg>
