<svg width="28" height="63" viewBox="0 0 28 63" fill="none" xmlns="http://www.w3.org/2000/svg">
<g filter="url(#filter0_d_1568_18029)">
<path d="M13.7459 44.6374C18.0465 44.6374 21.5328 42.6242 21.5328 40.1409C21.5328 37.6576 18.0465 35.6445 13.7459 35.6445C9.44529 35.6445 5.95898 37.6576 5.95898 40.1409C5.95898 42.6242 9.44529 44.6374 13.7459 44.6374Z" fill="#009573"/>
<path d="M19.7302 51.9773C19.051 51.6179 18.2904 51.4399 17.5222 51.4605C17.4587 51.4628 17.3954 51.4523 17.3361 51.4295C17.2767 51.4067 17.2226 51.3721 17.177 51.3278C17.1314 51.2836 17.0952 51.2305 17.0707 51.1719C17.0461 51.1133 17.0337 51.0503 17.0341 50.9867V50.9207C17.0337 50.857 17.0461 50.7939 17.0706 50.7351C17.0952 50.6764 17.1313 50.6231 17.1769 50.5786C17.2224 50.5341 17.2765 50.4993 17.3358 50.4762C17.3952 50.453 17.4586 50.4421 17.5222 50.4441C18.2904 50.4647 19.051 50.2867 19.7302 49.9272C20.9362 49.2295 20.8787 48.0408 19.6498 47.3804C18.9845 47.0598 18.2543 46.8969 17.5158 46.9043C16.7773 46.9118 16.0504 47.0895 15.3917 47.4235C15.011 47.615 14.713 47.9385 14.5533 48.3337C14.4979 48.5195 14.3843 48.6825 14.2292 48.7988C14.0742 48.9152 13.8858 48.9786 13.6919 48.9797H13.5599C13.366 48.9801 13.1773 48.9177 13.022 48.8017C12.8667 48.6857 12.7532 48.5225 12.6985 48.3365C12.5262 47.8226 11.9577 47.3431 10.9757 47.0646C10.0823 46.8092 9.13347 46.8232 8.24801 47.1048C6.34723 47.7106 6.10317 49.1147 7.51009 49.9272C8.19509 50.2907 8.96316 50.4688 9.7382 50.4441C9.8023 50.4409 9.86636 50.4509 9.92641 50.4736C9.98646 50.4962 10.0412 50.531 10.0873 50.5757C10.1333 50.6204 10.1697 50.6741 10.1941 50.7334C10.2185 50.7928 10.2304 50.8565 10.2292 50.9207C10.2263 50.9388 10.2263 50.9572 10.2292 50.9752C10.2292 51.0389 10.2164 51.102 10.1916 51.1606C10.1667 51.2192 10.1302 51.2723 10.0844 51.3165C10.0386 51.3607 9.98428 51.3952 9.9248 51.418C9.86532 51.4408 9.80185 51.4513 9.7382 51.449C8.9709 51.4284 8.21128 51.6064 7.53306 51.9658C6.32425 52.6636 6.38455 53.8551 7.61059 54.5155C8.27635 54.8349 9.00664 54.9968 9.74499 54.9888C10.4833 54.9809 11.21 54.8032 11.8687 54.4696C12.2494 54.2781 12.5475 53.9546 12.7071 53.5594C12.7633 53.3741 12.8771 53.2115 13.032 53.0953C13.1869 52.9792 13.3749 52.9154 13.5685 52.9134H13.6948C13.8884 52.9154 14.0764 52.9792 14.2313 53.0953C14.3862 53.2115 14.5 53.3741 14.5562 53.5594C14.7142 53.9593 15.0136 54.2873 15.3975 54.4811C16.0562 54.8147 16.7828 54.9924 17.5212 55.0003C18.2595 55.0083 18.9898 54.8463 19.6556 54.527C20.8787 53.8666 20.9362 52.675 19.7302 51.9773Z" fill="#BDE6FF"/>
<path d="M20.438 53.812L13.6302 49.7061L6.87127 53.8924C6.87127 53.8924 4 50.2057 4 40.2251C4 32.3837 23.2375 32.1339 23.2375 40.2251C23.249 50.4583 20.438 53.812 20.438 53.812Z" fill="#BDE6FF"/>
<path d="M23.2203 21.0795C23.0164 12.9049 16.1024 9.49675 16.1024 4.96875H11.1208C11.1208 9.49675 4.20386 12.9049 4 21.0795V40.2222H23.2375V21.0795H23.2203Z" fill="#BDE6FF"/>
<path d="M16.7293 1.79297V3.80286C16.7293 4.26226 16.4278 4.72167 15.822 5.07196C15.1413 5.41749 14.3888 5.59757 13.6254 5.59757C12.8621 5.59757 12.1096 5.41749 11.4289 5.07196C10.8145 4.73315 10.5273 4.27375 10.5273 3.81435V1.80445L16.7293 1.79297Z" fill="#37DD7A"/>
<path d="M13.6312 3.58335C15.3454 3.58335 16.735 2.78119 16.735 1.79167C16.735 0.80216 15.3454 0 13.6312 0C11.917 0 10.5273 0.80216 10.5273 1.79167C10.5273 2.78119 11.917 3.58335 13.6312 3.58335Z" fill="#285056"/>
<path d="M20.4208 28.3341C16.6652 30.502 10.5752 30.502 6.81673 28.3341C4.93891 27.2488 4 25.8275 4 24.4062V37.2236C4 38.6449 4.93891 40.0662 6.81673 41.1515C10.5752 43.3193 16.6652 43.3193 20.4208 41.1515C22.2986 40.0662 23.2375 38.6449 23.2375 37.2236V24.4062C23.2375 25.8275 22.2986 27.2488 20.4208 28.3341Z" fill="#37DD7A"/>
<path d="M20.4208 28.3341C16.6652 30.502 10.5752 30.502 6.81673 28.3341C4.93891 27.2488 4 25.8275 4 24.4062V25.8562C4 27.2775 4.93891 28.4002 6.81673 29.4855C10.5752 31.6533 16.6652 31.6533 20.4208 29.4855C22.2986 28.4002 23.2404 27.2775 23.2404 25.8562V24.4062C23.2404 25.8275 22.2986 27.2488 20.4208 28.3341Z" fill="#285056"/>
<path d="M20.4208 40.0099C16.6652 42.1777 10.5752 42.1777 6.81673 40.0099C4.93891 38.9246 4 37.5033 4 36.082V37.532C4 38.9533 4.93891 40.076 6.81673 41.1613C10.5752 43.3291 16.6652 43.3291 20.4208 41.1613C22.2986 40.076 23.2404 38.9533 23.2404 37.532V36.082C23.2404 37.4947 22.2986 38.916 20.4208 40.0099Z" fill="#285056"/>
</g>
<defs>
<filter id="filter0_d_1568_18029" x="0" y="0" width="27.2402" height="63" filterUnits="userSpaceOnUse" color-interpolation-filters="sRGB">
<feFlood flood-opacity="0" result="BackgroundImageFix"/>
<feColorMatrix in="SourceAlpha" type="matrix" values="0 0 0 0 0 0 0 0 0 0 0 0 0 0 0 0 0 0 127 0" result="hardAlpha"/>
<feOffset dy="4"/>
<feGaussianBlur stdDeviation="2"/>
<feComposite in2="hardAlpha" operator="out"/>
<feColorMatrix type="matrix" values="0 0 0 0 0 0 0 0 0 0 0 0 0 0 0 0 0 0 0.08 0"/>
<feBlend mode="normal" in2="BackgroundImageFix" result="effect1_dropShadow_1568_18029"/>
<feBlend mode="normal" in="SourceGraphic" in2="effect1_dropShadow_1568_18029" result="shape"/>
</filter>
</defs>
</svg>
