<svg width="21" height="21" viewBox="0 0 21 21" fill="none" xmlns="http://www.w3.org/2000/svg">
<path d="M8.39326 18.5292C8.29921 18.7549 8.07859 18.9018 7.83426 18.9018H7.83154L3.40618 18.8816C3.19052 18.8808 2.99185 18.7653 2.88403 18.5788L2.51569 17.9412L1.98857 17.0284C1.98665 17.0252 1.98505 17.022 1.98345 17.0191C1.87674 16.8337 1.87514 16.6059 1.97976 16.4197L2.92873 14.7274C3.03752 14.5343 3.24388 14.4167 3.46433 14.418L4.48524 14.43L7.81856 14.4688C8.06257 14.4717 8.28063 14.6203 8.37259 14.8461C8.46472 15.0718 8.41216 15.3306 8.23977 15.5027L7.06906 16.6738L8.26284 17.8676C8.43652 18.0413 8.48779 18.3026 8.39326 18.5292Z" fill="#F0FFF8"/>
<path d="M20.9189 13.724L20.5389 14.3828L20.0183 15.2842C19.9113 15.4691 19.715 15.5841 19.501 15.587L17.5609 15.6108H17.5534C17.3348 15.6108 17.133 15.4929 17.0255 15.302L16.5307 14.4219L14.892 11.5058C14.7728 11.2933 14.7922 11.0299 14.942 10.8373C15.0915 10.6448 15.3419 10.5606 15.5769 10.6238L17.1769 11.0522L17.6139 9.4215C17.6772 9.18438 17.8777 9.0091 18.1212 8.9777C18.3646 8.94613 18.603 9.06485 18.7249 9.27762L20.9202 13.1208C21.0272 13.3077 21.0267 13.5375 20.9189 13.724Z" fill="#F0FFF8"/>
<path d="M10.0194 0.827492C9.9101 0.643883 9.71223 0.53125 9.4985 0.53125H7.69718C7.48169 0.53125 7.28254 0.645645 7.17391 0.831657L4.94385 4.65428C4.82016 4.86641 4.83666 5.13221 4.98566 5.32735C5.13467 5.5225 5.38653 5.60838 5.62381 5.54477L7.25466 5.1077L7.68324 6.70747C7.74637 6.94299 7.9444 7.11762 8.18568 7.15095C8.21356 7.15463 8.24112 7.15656 8.26852 7.15656C8.48016 7.15656 8.67931 7.04536 8.78938 6.85967L11.0105 3.11411C11.1236 2.92345 11.1234 2.68633 11.0103 2.49567L10.0194 0.827492Z" fill="#F0FFF8"/>
<path d="M7.80963 11.6714C7.61497 11.8209 7.34997 11.8382 7.13752 11.7155L6.28228 11.222L4.48432 14.4276L2.51477 17.9388L1.98766 17.026C1.98573 17.0228 1.98413 17.0196 1.98253 17.0167L0.0812302 13.7233C-0.0270767 13.536 -0.0270767 13.305 0.0812302 13.1177L2.45293 9.01085L1.59112 8.51338C1.37915 8.39097 1.26155 8.15273 1.29359 7.90968C1.32548 7.66695 1.50076 7.467 1.7374 7.40355L6.11181 6.23172C6.43449 6.1452 6.76678 6.33666 6.85361 6.65966L8.0256 11.0342C8.08905 11.2709 8.00381 11.5224 7.80963 11.6714Z" fill="white"/>
<path d="M20.5382 14.3819L20.0176 15.2833L18.1163 18.5762C18.0082 18.7635 17.8082 18.879 17.5918 18.879H17.5914L12.8493 18.8782V19.8736C12.8493 20.1188 12.7016 20.3394 12.4754 20.4334C12.4004 20.4645 12.3216 20.4794 12.2437 20.4794C12.0861 20.4794 11.9311 20.4177 11.8151 20.3018L8.61303 17.0997C8.37639 16.863 8.37639 16.4794 8.61303 16.2431L11.8151 13.0407C11.9885 12.8674 12.2488 12.8158 12.4754 12.9093C12.7016 13.0031 12.8493 13.224 12.8493 13.4691V14.4569L16.53 14.421L20.5382 14.3819Z" fill="white"/>
<path d="M17.9476 5.12548L16.7757 9.49989C16.7031 9.7705 16.4583 9.94898 16.1909 9.94898C16.1388 9.94898 16.0864 9.94209 16.0339 9.92832L11.6594 8.75601C11.4228 8.69256 11.2475 8.49309 11.2155 8.25004C11.1836 8.00731 11.3012 7.76891 11.5132 7.64618L12.3686 7.15223L9.94672 3.07502L8.43555 0.53125H13.3026C13.5191 0.53125 13.7194 0.646767 13.8277 0.834061L14.9431 2.7674L16.1978 4.94171L17.0596 4.44408C17.272 4.32135 17.537 4.33865 17.7317 4.48814C17.9259 4.63714 18.0111 4.88868 17.9476 5.12548Z" fill="white"/>
<path d="M16.5306 14.4249L12.8499 14.4608V13.473C12.8499 13.2279 12.7022 13.007 12.476 12.9132C12.2494 12.8197 11.9891 12.8713 11.8157 13.0446L10.5 14.3605V18.99L11.8157 20.3057C11.9317 20.4217 12.0866 20.4833 12.2443 20.4833C12.3222 20.4833 12.401 20.4684 12.476 20.4374C12.7022 20.3433 12.8499 20.1227 12.8499 19.8776V18.8821L17.592 18.8829H17.5923C17.8088 18.8829 18.0087 18.7674 18.1169 18.5801L20.0182 15.2872L20.5387 14.3858L16.5306 14.4249Z" fill="white"/>
<path d="M17.7309 4.48814C17.5363 4.33865 17.2713 4.32135 17.0588 4.44408L16.197 4.94171L14.9423 2.7674L13.8269 0.834061C13.7186 0.646767 13.5183 0.53125 13.3019 0.53125H10.5V4.00781L12.3678 7.15223L11.5124 7.64618C11.3004 7.76891 11.1828 8.00731 11.2147 8.25004C11.2468 8.49309 11.4221 8.69256 11.6587 8.75601L16.0331 9.92832C16.0857 9.94209 16.138 9.94898 16.1901 9.94898C16.4575 9.94898 16.7023 9.7705 16.7749 9.49989L17.9469 5.12548C18.0103 4.88868 17.9251 4.63714 17.7309 4.48814Z" fill="white"/>
</svg>
