<svg width="21" height="21" viewBox="0 0 21 21" fill="none" xmlns="http://www.w3.org/2000/svg">
<path d="M17.2416 0.985231H19.06L12.6902 7.77988L7.59322 5.46303C7.49677 5.41922 7.38878 5.40763 7.28524 5.42999C7.1817 5.45235 7.08811 5.50746 7.01833 5.58717L0.121701 13.469C0.060866 13.5407 0.021665 13.6282 0.00866773 13.7214C-0.00432955 13.8145 0.00941248 13.9094 0.0482917 13.995C0.087171 14.0806 0.149585 14.1534 0.228259 14.2049C0.306932 14.2564 0.398623 14.2845 0.492641 14.2858C0.562909 14.286 0.632383 14.271 0.696368 14.242C0.760352 14.2129 0.817354 14.1705 0.863517 14.1175L7.51866 6.51128L12.6041 8.82282C12.6978 8.86581 12.8026 8.87816 12.9038 8.85812C13.0049 8.83808 13.0971 8.78668 13.1674 8.71121L19.444 2.01616L19.2188 3.36749C19.1996 3.49536 19.2314 3.62566 19.3074 3.73026C19.3835 3.83486 19.4976 3.90538 19.6251 3.92659C19.7527 3.94781 19.8835 3.91802 19.9892 3.84365C20.095 3.76928 20.1673 3.6563 20.1905 3.5291L20.6825 0.577286C20.6932 0.506741 20.6887 0.434738 20.6693 0.366067C20.65 0.297397 20.6162 0.233635 20.5703 0.179022C20.5244 0.124409 20.4674 0.0801979 20.4031 0.0493303C20.3388 0.0184628 20.2686 0.00164637 20.1973 0H17.2416C17.1121 0.00183453 16.9886 0.0545442 16.8977 0.146731C16.8068 0.238918 16.7559 0.363174 16.7559 0.49263C16.7559 0.622086 16.8069 0.746339 16.8978 0.838521C16.9886 0.930702 17.1122 0.983404 17.2416 0.985231Z" fill="white"/>
<path d="M19.2116 6.40625H17.7337C16.9175 6.40625 16.2559 7.06791 16.2559 7.8841V18.7217C16.2559 19.5378 16.9175 20.1995 17.7337 20.1995H19.2116C20.0278 20.1995 20.6894 19.5378 20.6894 18.7217V7.8841C20.6894 7.06791 20.0278 6.40625 19.2116 6.40625Z" fill="white"/>
<path d="M13.7916 10.3438H12.3138C11.4976 10.3438 10.8359 11.0054 10.8359 11.8216V18.7182C10.8359 19.5344 11.4976 20.1961 12.3138 20.1961H13.7916C14.6078 20.1961 15.2695 19.5344 15.2695 18.7182V11.8216C15.2695 11.0054 14.6078 10.3438 13.7916 10.3438Z" fill="white"/>
<path d="M8.37562 9.35938H6.89777C6.08158 9.35938 5.41992 10.021 5.41992 10.8372V18.7191C5.41992 19.5353 6.08158 20.1969 6.89777 20.1969H8.37562C9.19181 20.1969 9.85347 19.5353 9.85347 18.7191V10.8372C9.85347 10.021 9.19181 9.35938 8.37562 9.35938Z" fill="white"/>
<path d="M2.9557 15.2695H1.47785C0.661655 15.2695 0 15.9312 0 16.7474V18.7178C0 19.534 0.661655 20.1957 1.47785 20.1957H2.9557C3.77189 20.1957 4.43355 19.534 4.43355 18.7178V16.7474C4.43355 15.9312 3.77189 15.2695 2.9557 15.2695Z" fill="white"/>
</svg>
