<svg width="24" height="24" viewBox="0 0 24 24" fill="none" xmlns="http://www.w3.org/2000/svg">
<path d="M0.75 23.6236H6C6.09946 23.6236 6.19484 23.5841 6.26517 23.5138C6.33549 23.4434 6.375 23.3481 6.375 23.2486V19.8736C6.3744 19.3765 6.17667 18.8999 5.82517 18.5484C5.47367 18.1969 4.9971 17.9992 4.5 17.9986H4.42275C4.69741 17.7811 4.89754 17.4834 4.99538 17.147C5.09321 16.8105 5.0839 16.452 4.96873 16.1211C4.85355 15.7902 4.63824 15.5033 4.35265 15.3003C4.06707 15.0973 3.72538 14.9883 3.375 14.9883C3.02462 14.9883 2.68293 15.0973 2.39735 15.3003C2.11176 15.5033 1.89645 15.7902 1.78127 16.1211C1.6661 16.452 1.65679 16.8105 1.75462 17.147C1.85246 17.4834 2.05259 17.7811 2.32725 17.9986H2.25C1.7529 17.9992 1.27633 18.1969 0.924832 18.5484C0.573331 18.8999 0.375595 19.3765 0.375 19.8736V23.2486C0.375 23.3481 0.414509 23.4434 0.484835 23.5138C0.555161 23.5841 0.650544 23.6236 0.75 23.6236ZM3.375 15.7486C3.56042 15.7486 3.74168 15.8036 3.89585 15.9066C4.05002 16.0096 4.17018 16.156 4.24114 16.3273C4.31209 16.4987 4.33066 16.6871 4.29449 16.869C4.25831 17.0509 4.16902 17.2179 4.03791 17.349C3.9068 17.4801 3.73975 17.5694 3.5579 17.6056C3.37604 17.6418 3.18754 17.6232 3.01623 17.5522C2.84493 17.4813 2.69851 17.3611 2.5955 17.207C2.49248 17.0528 2.4375 16.8715 2.4375 16.6861C2.4375 16.4375 2.53627 16.199 2.71209 16.0232C2.8879 15.8474 3.12636 15.7486 3.375 15.7486ZM1.125 19.8736C1.125 19.5752 1.24353 19.2891 1.4545 19.0781C1.66548 18.8671 1.95163 18.7486 2.25 18.7486H4.5C4.79837 18.7486 5.08452 18.8671 5.2955 19.0781C5.50647 19.2891 5.625 19.5752 5.625 19.8736V22.8736H1.125V19.8736Z" fill="white"/>
<path d="M8.625 7.5H15.375C15.4745 7.5 15.5698 7.46049 15.6402 7.39017C15.7105 7.31984 15.75 7.22446 15.75 7.125V0.75C15.75 0.650544 15.7105 0.555161 15.6402 0.484835C15.5698 0.414509 15.4745 0.375 15.375 0.375H8.625C8.52554 0.375 8.43016 0.414509 8.35983 0.484835C8.28951 0.555161 8.25 0.650544 8.25 0.75V7.125C8.25 7.22446 8.28951 7.31984 8.35983 7.39017C8.43016 7.46049 8.52554 7.5 8.625 7.5ZM12.5 3L12.75 1.19906L12.375 2.80179L12 3H12.5ZM9 1.125H10.875V3C10.875 3.09946 10.9145 3.19484 10.9848 3.26516C11.0552 3.33549 11.1505 3.375 11.25 3.375H12.75C12.8495 3.375 12.9448 3.33549 13.0152 3.26516C13.0855 3.19484 13.125 3.09946 13.125 3V1.125H15V6.75H9V1.125Z" fill="white"/>
<path d="M22.2885 20.1174L23.1274 18.5334C23.3216 18.1666 23.4176 17.7558 23.4062 17.3409C23.3948 16.926 23.2763 16.5211 23.0622 16.1655C22.8481 15.8099 22.5457 15.5158 22.1844 15.3115C21.8231 15.1073 21.4151 15 21 15C20.5849 15 20.1769 15.1073 19.8156 15.3115C19.4543 15.5158 19.1519 15.8099 18.9378 16.1655C18.7237 16.5211 18.6052 16.926 18.5938 17.3409C18.5824 17.7558 18.6784 18.1666 18.8726 18.5334L19.7115 20.1174C18.8977 20.441 18.375 21.0579 18.375 21.7502C18.375 22.8002 19.5281 23.6252 21 23.6252C22.4719 23.6252 23.625 22.8002 23.625 21.7502C23.625 21.0579 23.1023 20.441 22.2885 20.1174ZM19.5375 18.1824C19.4037 17.9299 19.3376 17.6471 19.3454 17.3614C19.3532 17.0758 19.4347 16.797 19.5821 16.5521C19.7295 16.3073 19.9377 16.1048 20.1864 15.9641C20.4352 15.8235 20.7161 15.7496 21.0019 15.7496C21.2876 15.7496 21.5685 15.8235 21.8173 15.9641C22.0661 16.1048 22.2743 16.3073 22.4216 16.5521C22.569 16.797 22.6506 17.0758 22.6584 17.3614C22.6662 17.6471 22.6 17.9299 22.4662 18.1824L21 20.9488L19.5375 18.1824ZM21 22.8752C19.9837 22.8752 19.125 22.3599 19.125 21.7502C19.125 21.359 19.5 20.9844 20.0625 20.783L20.6674 21.9257C20.6993 21.9859 20.747 22.0364 20.8054 22.0716C20.8638 22.1068 20.9307 22.1254 20.9989 22.1254C21.0671 22.1254 21.134 22.1068 21.1924 22.0716C21.2508 22.0364 21.2985 21.9859 21.3304 21.9257L21.9375 20.783C22.5 20.9844 22.875 21.359 22.875 21.7502C22.875 22.3599 22.0163 22.8752 21 22.8752Z" fill="white"/>
<path d="M22.125 17.25C22.125 17.0275 22.059 16.81 21.9354 16.625C21.8118 16.44 21.6361 16.2958 21.4305 16.2106C21.225 16.1255 20.9988 16.1032 20.7805 16.1466C20.5623 16.19 20.3618 16.2972 20.2045 16.4545C20.0472 16.6118 19.94 16.8123 19.8966 17.0305C19.8532 17.2488 19.8755 17.475 19.9606 17.6805C20.0458 17.8861 20.19 18.0618 20.375 18.1854C20.56 18.309 20.7775 18.375 21 18.375C21.2984 18.375 21.5845 18.2565 21.7955 18.0455C22.0065 17.8345 22.125 17.5484 22.125 17.25ZM21.0622 17.25C21.0622 17.1758 20.9354 17.4552 20.9766 17.3935C21.0178 17.3318 20.984 17.6497 21.0525 17.6213C21.121 17.5929 21.5015 17.2355 21.5742 17.25C21.647 17.2645 21.4163 17.0765 21.4688 17.1289C21.5212 17.1814 21.3533 17.1041 21.3678 17.1768C21.3823 17.2496 21.3748 17.325 21.3465 17.3935C21.3181 17.462 21.4922 17.2859 21.4305 17.3271C21.3689 17.3683 21.6484 17.25 21.5742 17.25C21.4748 17.25 21.1228 17.5703 21.0525 17.5C20.9822 17.4297 21.0622 17.3495 21.0622 17.25Z" fill="white"/>
<path d="M14.9798 12.8228C15.0016 12.7425 15.0068 12.6586 14.995 12.5763C14.9833 12.494 14.9549 12.4149 14.9116 12.3439L14.4886 11.6434C14.4006 11.503 14.2623 11.4015 14.102 11.3597C13.9416 11.3179 13.7714 11.3389 13.6261 11.4184L13.5289 11.4724C13.383 11.3691 13.2268 11.2812 13.0628 11.2099V11.1266C13.0609 10.9588 12.9926 10.7986 12.8727 10.6811C12.7528 10.5637 12.5913 10.4985 12.4234 10.5H11.5782C11.4106 10.499 11.2495 10.5644 11.13 10.6819C11.0105 10.7994 10.9425 10.9595 10.9407 11.127V11.2103C10.7769 11.2811 10.6208 11.3683 10.4746 11.4705L10.3771 11.4169C10.2317 11.3373 10.0615 11.3163 9.90111 11.3581C9.74077 11.3999 9.60248 11.5014 9.51455 11.6419L9.09192 12.342C9.04845 12.413 9.01994 12.4922 9.00814 12.5746C8.99634 12.657 9.0015 12.7409 9.0233 12.8213C9.04552 12.9029 9.08393 12.9793 9.13624 13.0459C9.18854 13.1124 9.25369 13.1678 9.3278 13.2086L9.4088 13.2533C9.3918 13.4163 9.3918 13.5807 9.4088 13.7438L9.3278 13.7884C9.25369 13.8293 9.18854 13.8846 9.13624 13.9512C9.08393 14.0177 9.04552 14.0941 9.0233 14.1758C9.00152 14.256 8.99634 14.3399 9.00807 14.4222C9.01981 14.5046 9.04821 14.5837 9.09155 14.6546L9.51455 15.3551C9.60236 15.4957 9.74065 15.5974 9.90104 15.6392C10.0614 15.6811 10.2318 15.6599 10.3771 15.5801L10.4742 15.5261C10.6201 15.6294 10.7763 15.7174 10.9403 15.7886V15.8719C10.9418 16.0397 11.0098 16.2001 11.1294 16.3178C11.2489 16.4356 11.4104 16.5011 11.5782 16.5H12.4234C12.591 16.501 12.7521 16.4356 12.8716 16.3181C12.9911 16.2006 13.0591 16.0406 13.0609 15.873V15.7898C13.2247 15.7189 13.3808 15.6317 13.5271 15.5295L13.6246 15.5831C13.7699 15.6629 13.9402 15.6841 14.1006 15.6422C14.261 15.6004 14.3992 15.4987 14.4871 15.3581L14.9097 14.658C14.9532 14.587 14.9817 14.5079 14.9935 14.4255C15.0053 14.3431 15.0001 14.2591 14.9783 14.1788C14.9561 14.0971 14.9177 14.0207 14.8654 13.9542C14.8131 13.8876 14.7479 13.8323 14.6738 13.7914L14.5928 13.7468C14.6098 13.5837 14.6098 13.4193 14.5928 13.2563L14.6738 13.2116C14.7484 13.1707 14.8139 13.1152 14.8665 13.0484C14.919 12.9816 14.9576 12.9048 14.9798 12.8228ZM13.8571 13.5C13.857 13.5786 13.8513 13.657 13.8402 13.7348C13.8239 13.8594 13.8457 13.986 13.9027 14.098C13.9597 14.2099 14.0493 14.302 14.1597 14.3621L14.1998 14.3839L13.8998 14.8785L13.8327 14.841C13.7227 14.7817 13.5982 14.755 13.4736 14.7639C13.349 14.7728 13.2296 14.817 13.1292 14.8913C13.0019 14.9845 12.8633 15.0611 12.7167 15.1193C12.598 15.1645 12.4957 15.2444 12.423 15.3486C12.3504 15.4528 12.3108 15.5765 12.3094 15.7035V15.75H11.6892V15.7039C11.6879 15.5769 11.6483 15.4533 11.5757 15.3491C11.503 15.2449 11.4006 15.1651 11.2819 15.12C11.1354 15.0613 10.9968 14.9845 10.8694 14.8913C10.7691 14.8171 10.6496 14.773 10.5251 14.7641C10.4006 14.7553 10.2761 14.7821 10.1663 14.8414L10.0996 14.8789L9.79955 14.3843L9.8393 14.3625C9.94973 14.3026 10.0394 14.2106 10.0965 14.0986C10.1536 13.9867 10.1755 13.8601 10.1592 13.7355C10.1367 13.5797 10.1367 13.4215 10.1592 13.2656C10.1755 13.141 10.1537 13.0144 10.0966 12.9024C10.0396 12.7905 9.95003 12.6984 9.83968 12.6383L9.79955 12.6165L10.0996 12.1219L10.1667 12.1594C10.2766 12.2188 10.4011 12.2456 10.5257 12.2367C10.6503 12.2278 10.7698 12.1835 10.8702 12.1091C10.9974 12.016 11.1361 11.9393 11.2827 11.8811C11.4014 11.8359 11.5037 11.756 11.5763 11.6518C11.649 11.5476 11.6885 11.4239 11.6899 11.2969V11.25H12.3132V11.2961C12.3145 11.4231 12.354 11.5468 12.4267 11.6509C12.4993 11.7551 12.6017 11.8349 12.7204 11.88C12.867 11.9387 13.0056 12.0155 13.1329 12.1088C13.2334 12.1828 13.3528 12.2268 13.4773 12.2356C13.6017 12.2445 13.7262 12.2178 13.8361 12.1586L13.9028 12.1211L14.2028 12.6158L14.1631 12.6375C14.0526 12.6975 13.9629 12.7895 13.9058 12.9014C13.8487 13.0133 13.8269 13.1399 13.8432 13.2645C13.8533 13.3426 13.858 13.4213 13.8571 13.5Z" fill="white"/>
<path d="M12 12.1875C11.7404 12.1875 11.4867 12.2645 11.2708 12.4087C11.055 12.5529 10.8867 12.7579 10.7874 12.9977C10.6881 13.2376 10.6621 13.5015 10.7127 13.7561C10.7634 14.0107 10.8884 14.2445 11.0719 14.4281C11.2555 14.6116 11.4893 14.7366 11.7439 14.7873C11.9985 14.8379 12.2624 14.8119 12.5023 14.7126C12.7421 14.6133 12.9471 14.445 13.0913 14.2292C13.2355 14.0133 13.3125 13.7596 13.3125 13.5C13.3125 13.1519 13.1742 12.8181 12.9281 12.5719C12.6819 12.3258 12.3481 12.1875 12 12.1875ZM12.2153 13.3382C12.104 13.3382 12.0112 13.2493 11.9187 13.1875C11.8262 13.1257 11.8796 13.205 11.837 13.1023C11.7945 12.9995 11.8153 13.158 11.837 13.0489C11.8588 12.9397 11.6653 13.1568 11.7439 13.0781C11.8226 12.9995 12.2897 14.2812 12.5 14C12.6091 13.9783 12.1125 13.3921 12.2153 13.4347C12.318 13.4773 12.1534 13.4906 12.2153 13.5831C12.2771 13.6756 12.2897 13.6448 12.2897 13.7561C12.2897 13.9052 12.4341 13.8583 12.5 14C12.3945 14.1055 12.3644 13.3382 12.2153 13.3382Z" fill="white"/>
<path d="M9.34115 22.7012L9.9374 22.2459L9.24477 21.3392C10.6268 21.7627 12.088 21.8615 13.5145 21.6278C14.941 21.3941 16.2942 20.8342 17.4689 19.9918L17.0309 19.3828C15.9609 20.1502 14.7297 20.6627 13.4313 20.8814C12.133 21.1 10.8018 21.0189 9.53952 20.6443L10.5464 20.3293L10.3214 19.6134L8.1374 20.2967C8.0797 20.3145 8.02716 20.346 7.98425 20.3885C7.94133 20.4309 7.90931 20.4832 7.8909 20.5407C7.87249 20.5982 7.86824 20.6593 7.87851 20.7188C7.88878 20.7783 7.91327 20.8344 7.9499 20.8824L9.34115 22.7012Z" fill="white"/>
<path d="M20.613 11.9464L19.9474 11.0839L19.3534 11.5418L20.751 13.3542C20.786 13.3997 20.831 13.4365 20.8825 13.4619C20.934 13.4872 20.9906 13.5004 21.048 13.5004H21.0652C21.1256 13.4977 21.1843 13.4805 21.2366 13.4502C21.2888 13.4199 21.3329 13.3774 21.3652 13.3264L22.59 11.3929L21.9562 10.9917L21.363 11.9292C21.3029 10.5998 20.9593 9.29862 20.3551 8.11295C19.7508 6.92729 18.9 5.88455 17.8597 5.05469L17.3906 5.64006C18.3453 6.40167 19.1265 7.35812 19.6822 8.44561C20.2378 9.53309 20.5552 10.7266 20.613 11.9464Z" fill="white"/>
<path d="M2.70002 13.5485L3.44327 13.4502C3.39709 13.0934 3.37429 12.7341 3.37502 12.3743C3.371 10.1386 4.24072 7.98984 5.79864 6.38633L5.60814 7.46633L6.34652 7.59646L6.7444 5.34271C6.75491 5.2833 6.75094 5.22224 6.73282 5.1647C6.7147 5.10716 6.68296 5.05484 6.6403 5.01218C6.59764 4.96952 6.54532 4.93778 6.48778 4.91966C6.43024 4.90154 6.36917 4.89757 6.30977 4.90808L4.05602 5.30596L4.18652 6.04471L5.27064 5.85308C3.57007 7.59733 2.62036 9.93829 2.62502 12.3743C2.62427 12.7669 2.64933 13.1591 2.70002 13.5485Z" fill="white"/>
<path d="M4.5 16.5C4.5 17.3284 4.32843 18 3.5 18C2.67157 18 2 17.3284 2 16.5C2 15.6716 2.67157 15.5 3.5 15.5C4.32843 15.5 4.5 15.6716 4.5 16.5Z" fill="white"/>
</svg>
